# xmcd CD database file
#
# Track frame offsets:
#	150
#	16910
#	36700
#	57212
#	74670
#	97322
#	116600
#	139015
#	157637
#	170450
#	187985
#	204550
#	223332
#	239240
#
# Disc length: 3507 seconds
#
# Revision: 0
# Processed by: cddbd v1.4PL0 Copyright (c) Steve Scherf et al.
# Submitted via: CDex 1.50Beta7
#
DISCID=d70db10e
DTITLE=Undergroove - VIRTUAL
DYEAR=1900
DGENRE=New Age
TTITLE0=WRAPPED IN RAGE
TTITLE1=ALRIGHT
TTITLE2=UNCENSORED
TTITLE3=CRUEL WAY
TTITLE4=NO GROUND DUST
TTITLE5=HALF WAY UP
TTITLE6=TWISTED
TTITLE7=GANGSTER
TTITLE8=GET UP OFF THE FLOOR
TTITLE9=HYPED
TTITLE10=BACK TO INSANITY
TTITLE11=DON'T BRING ME DOWN
TTITLE12=FLATLINE
TTITLE13=VIRTUALLY ALRIGHT
EXTD=
EXTT0=
EXTT1=
EXTT2=
EXTT3=
EXTT4=
EXTT5=
EXTT6=
EXTT7=
EXTT8=
EXTT9=
EXTT10=
EXTT11=
EXTT12=
EXTT13=
PLAYORDER=
